<?xml version="1.0" encoding="utf-8"?>
<!-- Generator: Adobe Illustrator 16.0.0, SVG Export Plug-In . SVG Version: 6.00 Build 0)  -->
<!DOCTYPE svg PUBLIC "-//W3C//DTD SVG 1.1//EN" "http://www.w3.org/Graphics/SVG/1.1/DTD/svg11.dtd">
<svg version="1.1" id="Layer_1" xmlns="http://www.w3.org/2000/svg" xmlns:xlink="http://www.w3.org/1999/xlink" x="0px" y="0px"
	 width="128px" height="128px" viewBox="0 0 128 128" enable-background="new 0 0 128 128" xml:space="preserve">
<g>
	<defs>
		<rect id="SVGID_1_" x="2" y="2" width="124" height="124"/>
	</defs>
	<clipPath id="SVGID_2_">
		<use xlink:href="#SVGID_1_"  overflow="visible"/>
	</clipPath>
	<g id="Ebene_1" clip-path="url(#SVGID_2_)">
		<g>
			<g>
				<path fill="#414042" d="M71.468,15.027c8.538-0.563,14.346-0.155,20.963,2.308c6.309,2.396,10.149,4.082,15.43,10.139
					c4.821,5.465,6.727,9.576,8.299,16.576c1.248,6.686,0.637,10.781-0.689,17.521c-1.53,7.55-4.291,11.345-7.609,18.4
					c-3.06,6.469-6.581,9.68-8.766,16.137c-2.085,6.854-0.355,13.678,2.786,19.803c2.175,4.193,4.473,7.244,7.068,10.051h6.221
					c-2.488-2.561-3.857-4.338-6.383-7.512c-3.829-5.074-4.047-8.086-4.153-13.576c-0.058-5.803,1.659-9.227,3.936-14.295
					c3.253-6.652,3.42-6.914,5.272-11.504c2.566-6.457,4.405-10.039,5.77-16.828c1.139-6.602,1.892-10.551,0.687-17.041
					c-1.296-8.296-4.692-13.969-8.962-19.351c-5.05-5.964-9.251-8.168-16.832-10.828c-7.07-2.429-14.043-2.891-23.262-1.841
					L71.468,15.027z"/>
				<path fill="#414042" d="M75.176-181.204c-0.484,3.838-0.697,6.194-0.697,6.225c-0.474,2.882-0.851,4.494-1.864,7.343
					c-1.105,3.769-1.565,5.039-3.895,9.457c-1.802,2.95-3.258,5.121-5.312,8.055c-1.897,2.473-3.189,4.212-5.292,6.689
					c-0.071,210.965-0.25,211.232-0.237,211.211c10.446,0.072,18.973,7.113,20.286,17.496c1.099,9.133-4.547,16.916-11.511,20.73
					c-3.642,1.936-6.702,2.639-10.483,2.797V-94.967h-1.629v203.785c-0.635,0-1.288-0.016-1.943-0.027
					c-0.198-0.023-0.378-0.023-0.573-0.023V-29.555h-1.646v138.237c-0.674-0.033-1.368-0.127-2.06-0.176V-54.643h-1.625v162.897
					c-4.598-0.773-8.458-2.461-11.616-5.459c-4.5-4.186-6.649-10.744-6.455-16.809c0.301-5.117,1.988-10.818,7.149-14.52
					c3.105-2.447,5.915-3.205,9.448-3.455c-0.037-0.057,0.121,0,0-8.046c-3.28-0.024-9.771,1.661-15.196,7.355
					c-5.497,5.498-7.328,10.83-7.604,18.414c-0.269,5.93,2.68,13.41,6.451,17.502c5.411,6.172,10.792,8.916,17.823,9.93v12.795h1.63
					v-12.598c0.689,0.068,1.369,0.123,2.058,0.176v12.422h1.643v-12.352c0.026,0,0.07,0,0.092,0c0.817,0,1.613-0.018,2.429-0.068
					v12.42h1.629v-12.566c5.522-0.639,10.404-2.521,13.687-4.373c6.171-3.445,11.959-12.029,11.528-21.678
					c-0.175-7.867-2.9-13.824-8.981-17.955c-2.378-1.736-4.162-2.768-7.154-3.686L62.031-55.683
					c-0.975-41.549-0.975-41.37-1.374-67.256c0.015-4.637-0.192-6.862,0.449-11.048c0.727-3.787,1.191-6.436,2.761-9.451
					c2.379-4.468,3.589-6.346,5.54-10.594c2.514-5.571,4.163-8.68,5.539-14.505c1.04-5.021,1.184-7.01,1.379-12.896
					C76.1-183,74.922-183.133,75.176-181.204z"/>
			</g>
			<path display="none" fill="#414042" d="M32.894,40.23c0.846,0.806,1.447,1.592,1.815,2.363c0.365,0.77,0.552,1.599,0.552,2.489
				c0,1.802-0.76,3.381-2.264,4.727c-1.512,1.35-3.45,2.02-5.818,2.02c-2.369,0-4.541-0.743-6.504-2.237
				c-1.97-1.488-2.952-3.408-2.952-5.755c0-1.458,0.464-2.66,1.392-3.611h-3.05c-1.888,0-3.049,0.044-3.484,0.136
				c-0.432,0.087-0.726,0.229-0.883,0.423c-0.16,0.191-0.239,0.434-0.239,0.722c0,0.314,0.1,0.728,0.288,1.24l-0.631,0.237
				l-2.019-4.925v-0.813h19.117c1.936,0,3.118-0.046,3.546-0.136c0.423-0.089,0.722-0.237,0.895-0.433
				c0.167-0.196,0.25-0.431,0.25-0.692c0-0.323-0.099-0.759-0.306-1.296l0.632-0.201l2.037,4.905v0.832L32.894,40.23L32.894,40.23z
				 M31.637,40.23h-8.517c-0.821,0.068-1.563,0.288-2.236,0.651c-0.675,0.355-1.179,0.834-1.523,1.434
				c-0.345,0.596-0.519,1.174-0.519,1.742c0,1.055,0.478,2.005,1.428,2.832c1.25,1.099,3.078,1.643,5.486,1.643
				c2.426,0,4.289-0.525,5.583-1.587s1.938-2.237,1.938-3.539C33.278,42.31,32.73,41.253,31.637,40.23z M17.738,27.725h13.283
				c1.034,0,1.722-0.072,2.065-0.228c0.345-0.149,0.603-0.375,0.768-0.667c0.17-0.296,0.254-0.832,0.254-1.616h0.647v8.03h-0.647
				c0-0.806-0.076-1.347-0.231-1.62c-0.158-0.276-0.416-0.496-0.777-0.658c-0.363-0.162-1.051-0.247-2.073-0.247h-6.372
				c-1.793,0-2.955,0.051-3.48,0.162c-0.387,0.085-0.656,0.218-0.807,0.397c-0.148,0.184-0.225,0.43-0.225,0.739
				c0,0.339,0.089,0.748,0.272,1.229l-0.65,0.251l-2.021-4.978v-0.798h-0.005V27.725z M9.095,29.215
				c0-0.508,0.176-0.934,0.536-1.292c0.352-0.355,0.78-0.534,1.29-0.534c0.512,0,0.938,0.179,1.301,0.534
				c0.363,0.358,0.541,0.781,0.541,1.292c0,0.505-0.178,0.936-0.541,1.301c-0.363,0.36-0.792,0.545-1.301,0.545
				c-0.508,0-0.936-0.182-1.29-0.54C9.271,30.17,9.095,29.735,9.095,29.215z M24.454,20.379c2.455,0.012,4.38-0.586,5.777-1.788
				c1.394-1.204,2.094-2.616,2.094-4.244c0-1.079-0.297-2.022-0.892-2.82c-0.599-0.799-1.614-1.471-3.06-2.008l0.363-0.562
				c1.651,0.254,3.149,0.987,4.503,2.199c1.357,1.219,2.032,2.74,2.032,4.566c0,1.988-0.775,3.684-2.321,5.102
				c-1.544,1.415-3.623,2.121-6.233,2.121c-2.828,0-5.032-0.726-6.615-2.175c-1.582-1.448-2.373-3.268-2.373-5.462
				c0-1.85,0.611-3.374,1.831-4.566c1.224-1.188,2.855-1.785,4.9-1.785L24.454,20.379L24.454,20.379z M23.405,20.379v-7.655
				c-1.058,0.061-1.806,0.188-2.235,0.377c-0.672,0.308-1.205,0.75-1.589,1.35c-0.387,0.59-0.58,1.217-0.58,1.865
				c0,0.999,0.387,1.892,1.165,2.685C20.94,19.782,22.025,20.247,23.405,20.379z M9.726-14.783l7.724-0.631v0.631
				c-1.923,0.639-3.372,1.461-4.348,2.47c-1.405,1.456-2.109,3.328-2.109,5.614c0,3.115,1.232,5.485,3.697,7.111
				c2.078,1.359,4.563,2.039,7.438,2.039c2.328,0,4.458-0.455,6.384-1.357c1.929-0.902,3.335-2.083,4.23-3.546
				c0.898-1.463,1.345-2.966,1.345-4.504c0-0.904-0.115-1.775-0.343-2.617c-0.23-0.844-0.567-1.656-1.014-2.436h-7.074
				c-1.226,0-2.03,0.09-2.409,0.278c-0.381,0.184-0.666,0.477-0.868,0.866c-0.197,0.392-0.296,1.078-0.296,2.065h-0.688v-9.473
				h0.688v0.455c0,0.941,0.311,1.582,0.938,1.933c0.445,0.242,1.323,0.36,2.635,0.36h7.489c0.746,1.381,1.294,2.748,1.645,4.098
				c0.347,1.35,0.524,2.842,0.524,4.494c0,4.727-1.519,8.32-4.551,10.775c-2.272,1.841-4.899,2.763-7.866,2.763
				c-2.151,0-4.217-0.518-6.189-1.553c-2.349-1.229-4.151-2.91-5.417-5.049c-1.045-1.792-1.571-3.913-1.571-6.354
				c0-0.893,0.072-1.698,0.214-2.426c0.143-0.729,0.462-1.759,0.957-3.097c0.254-0.677,0.381-1.125,0.381-1.356
				c0-0.228-0.107-0.424-0.315-0.586c-0.207-0.159-0.622-0.259-1.236-0.297L9.726-14.783L9.726-14.783z M17.738-25.64h13.283
				c1.034,0,1.722-0.073,2.065-0.229c0.345-0.15,0.603-0.371,0.768-0.665c0.168-0.295,0.254-0.829,0.254-1.613h0.647v8.029h-0.647
				c0-0.808-0.076-1.352-0.231-1.625c-0.158-0.276-0.416-0.496-0.777-0.658c-0.363-0.162-1.051-0.247-2.073-0.247h-6.372
				c-1.793,0-2.955,0.061-3.48,0.167c-0.387,0.08-0.656,0.213-0.807,0.395c-0.148,0.182-0.225,0.423-0.225,0.737
				c0,0.339,0.089,0.748,0.272,1.231l-0.65,0.252l-2.021-4.98v-0.793H17.738L17.738-25.64z M9.095-24.143
				c0-0.506,0.176-0.938,0.536-1.292c0.352-0.354,0.78-0.528,1.29-0.528c0.512,0,0.938,0.175,1.301,0.528
				c0.363,0.354,0.541,0.786,0.541,1.292c0,0.505-0.178,0.938-0.541,1.296c-0.363,0.365-0.792,0.542-1.301,0.542
				c-0.508,0-0.936-0.172-1.29-0.529C9.271-23.193,9.095-23.625,9.095-24.143z M12.796-35.005h5.432v-3.865h1.264v3.865H30.21
				c1.068,0,1.789-0.157,2.161-0.459c0.375-0.309,0.557-0.703,0.557-1.187c0-0.399-0.125-0.78-0.369-1.155
				c-0.248-0.369-0.609-0.659-1.093-0.865v-0.702c1.177,0.417,2.065,1.016,2.662,1.79c0.597,0.768,0.893,1.561,0.893,2.377
				c0,0.557-0.151,1.095-0.46,1.627c-0.303,0.526-0.745,0.919-1.316,1.173c-0.573,0.254-1.456,0.381-2.645,0.381H19.486v2.614H18.89
				c-0.266-0.659-0.716-1.336-1.345-2.029c-0.63-0.693-1.381-1.306-2.245-1.848c-0.459-0.278-1.294-0.659-2.508-1.155L12.796-35.005
				L12.796-35.005z M32.374-49.843c1.314,1.694,2.071,2.765,2.277,3.19c0.296,0.651,0.451,1.34,0.451,2.082
				c0,1.141-0.391,2.078-1.174,2.822c-0.782,0.744-1.811,1.106-3.084,1.106c-0.808,0-1.502-0.178-2.093-0.538
				c-0.813-0.496-1.59-1.349-2.31-2.576c-0.724-1.219-1.6-3.249-2.634-6.085h-0.652c-1.647,0-2.778,0.26-3.391,0.78
				c-0.613,0.526-0.92,1.289-0.92,2.283c0,0.76,0.206,1.358,0.613,1.803c0.409,0.456,0.881,0.687,1.407,0.687l1.044-0.04
				c0.555,0,0.978,0.143,1.282,0.421c0.3,0.284,0.452,0.653,0.452,1.109c0,0.451-0.156,0.812-0.464,1.098
				c-0.312,0.278-0.74,0.417-1.282,0.417c-1.034,0-1.986-0.532-2.85-1.59c-0.867-1.058-1.3-2.547-1.3-4.456
				c0-1.467,0.247-2.67,0.739-3.611c0.373-0.704,0.958-1.23,1.748-1.569c0.517-0.219,1.576-0.322,3.173-0.322h5.612
				c1.577,0,2.543-0.033,2.899-0.09c0.357-0.057,0.595-0.157,0.712-0.293c0.121-0.139,0.18-0.3,0.18-0.475
				c0-0.196-0.043-0.363-0.127-0.508c-0.155-0.254-0.591-0.737-1.316-1.467h1.012c1.806,1.346,2.709,2.64,2.709,3.863
				c0,0.586-0.204,1.058-0.612,1.407C34.059-50.037,33.363-49.855,32.374-49.843z M31.203-49.843h-6.296
				c0.722,1.815,1.237,2.988,1.533,3.521c0.529,0.953,1.087,1.624,1.661,2.039c0.572,0.411,1.208,0.613,1.892,0.613
				c0.867,0,1.585-0.256,2.159-0.774c0.571-0.518,0.857-1.116,0.857-1.788C33.006-47.148,32.405-48.348,31.203-49.843z
				 M17.738-61.717h3.716c-2.477-1.385-3.716-2.806-3.716-4.258c0-0.662,0.201-1.209,0.607-1.645
				c0.403-0.433,0.867-0.653,1.397-0.653c0.468,0,0.867,0.157,1.19,0.474c0.324,0.312,0.487,0.687,0.487,1.116
				c0,0.421-0.209,0.895-0.624,1.418c-0.416,0.518-0.623,0.907-0.623,1.161c0,0.215,0.121,0.451,0.363,0.711
				c0.488,0.532,1.304,1.098,2.433,1.669h7.919c0.917,0,1.607-0.109,2.079-0.339c0.324-0.157,0.595-0.429,0.811-0.832
				c0.216-0.399,0.325-0.97,0.325-1.714h0.647v8.462h-0.647c0-0.842-0.133-1.471-0.399-1.878c-0.192-0.3-0.499-0.511-0.917-0.629
				c-0.203-0.064-0.787-0.088-1.746-0.088h-6.405c-1.926,0-3.068,0.037-3.437,0.121c-0.369,0.073-0.636,0.221-0.802,0.429
				c-0.168,0.206-0.254,0.472-0.254,0.78c0,0.375,0.089,0.799,0.272,1.265l-0.65,0.181l-2.019-4.997L17.738-61.717L17.738-61.717z
				 M17.738-74.026h3.716c-2.477-1.382-3.716-2.804-3.716-4.258c0-0.659,0.201-1.209,0.607-1.643
				c0.403-0.429,0.867-0.647,1.397-0.647c0.468,0,0.867,0.155,1.19,0.472c0.324,0.318,0.487,0.687,0.487,1.123
				c0,0.42-0.209,0.895-0.624,1.415c-0.416,0.527-0.623,0.915-0.623,1.163c0,0.218,0.121,0.454,0.363,0.708
				c0.488,0.538,1.304,1.101,2.433,1.678h7.919c0.917,0,1.607-0.118,2.079-0.348c0.324-0.151,0.595-0.429,0.811-0.828
				c0.216-0.393,0.325-0.968,0.325-1.711h0.647v8.462h-0.647c0-0.842-0.133-1.467-0.399-1.875c-0.192-0.303-0.499-0.508-0.917-0.635
				c-0.203-0.061-0.787-0.084-1.746-0.084h-6.405c-1.926,0-3.068,0.042-3.437,0.119c-0.369,0.081-0.636,0.22-0.802,0.432
				c-0.168,0.211-0.254,0.478-0.254,0.786c0,0.369,0.089,0.793,0.272,1.261l-0.65,0.185l-2.019-5L17.738-74.026L17.738-74.026z
				 M24.454-84.272c2.455,0.012,4.38-0.584,5.777-1.791c1.394-1.197,2.094-2.619,2.094-4.237c0-1.086-0.297-2.027-0.892-2.828
				c-0.599-0.799-1.614-1.47-3.06-2.009l0.363-0.559c1.651,0.254,3.149,0.982,4.503,2.195c1.357,1.219,2.032,2.74,2.032,4.57
				c0,1.987-0.775,3.686-2.321,5.099c-1.544,1.413-3.623,2.116-6.233,2.116c-2.828,0-5.032-0.726-6.615-2.171
				c-1.582-1.445-2.373-3.272-2.373-5.461c0-1.854,0.611-3.375,1.831-4.574c1.224-1.186,2.855-1.778,4.9-1.778L24.454-84.272
				L24.454-84.272z M23.405-84.272v-7.655c-1.058,0.064-1.806,0.191-2.235,0.378c-0.672,0.302-1.205,0.75-1.589,1.348
				c-0.387,0.59-0.58,1.219-0.58,1.866c0,0.996,0.387,1.89,1.165,2.683C20.94-84.868,22.025-84.411,23.405-84.272z M31.26-101.363
				c0-0.571,0.195-1.04,0.584-1.425c0.391-0.387,0.866-0.58,1.418-0.58c0.555,0,1.025,0.197,1.416,0.584
				c0.39,0.396,0.588,0.862,0.588,1.418c0,0.557-0.195,1.024-0.588,1.415s-0.861,0.581-1.416,0.581
				c-0.563,0-1.037-0.193-1.427-0.581C31.445-100.337,31.26-100.809,31.26-101.363z M28.479-121.182
				c2.178,0.45,3.853,1.318,5.023,2.62c1.173,1.303,1.759,2.737,1.759,4.315c0,1.873-0.786,3.511-2.367,4.905
				c-1.572,1.395-3.703,2.096-6.386,2.096c-2.598,0-4.71-0.774-6.333-2.322c-1.625-1.543-2.437-3.399-2.437-5.565
				c0-1.621,0.431-2.963,1.293-4.01c0.857-1.046,1.752-1.566,2.681-1.566c0.455,0,0.827,0.145,1.108,0.441
				c0.287,0.294,0.425,0.705,0.425,1.234c0,0.708-0.229,1.241-0.688,1.609c-0.254,0.202-0.734,0.339-1.443,0.405
				c-0.71,0.066-1.251,0.311-1.623,0.732c-0.363,0.423-0.543,1.003-0.543,1.748c0,1.204,0.446,2.172,1.335,2.903
				c1.177,0.98,2.738,1.465,4.677,1.465c1.972,0,3.716-0.485,5.227-1.458c1.51-0.965,2.269-2.271,2.269-3.922
				c0-1.177-0.408-2.238-1.212-3.173c-0.555-0.665-1.558-1.306-3.01-1.935L28.479-121.182z M9.095-128.398h12.09
				c-1.466-1.34-2.409-2.395-2.825-3.178c-0.415-0.784-0.626-1.562-0.626-2.35c0-0.931,0.26-1.743,0.774-2.414
				c0.518-0.671,1.33-1.173,2.438-1.494c0.771-0.23,2.178-0.345,4.222-0.345h5.846c1.043,0,1.762-0.083,2.146-0.254
				c0.289-0.121,0.518-0.321,0.688-0.615c0.172-0.288,0.254-0.82,0.254-1.588h0.647v8.118h-0.647v-0.375
				c0-0.774-0.117-1.306-0.352-1.608c-0.236-0.3-0.584-0.514-1.038-0.629c-0.193-0.04-0.756-0.056-1.694-0.056h-5.844
				c-1.802,0-2.992,0.092-3.556,0.279c-0.563,0.193-0.988,0.484-1.27,0.897c-0.28,0.409-0.424,0.901-0.424,1.479
				c0,0.586,0.156,1.203,0.472,1.839c0.313,0.641,0.943,1.403,1.895,2.292h8.733c1.133,0,1.837-0.066,2.115-0.19
				c0.275-0.13,0.508-0.36,0.694-0.705c0.187-0.342,0.278-0.937,0.278-1.779h0.647v8.19h-0.647c0-0.732-0.119-1.313-0.344-1.732
				c-0.121-0.243-0.351-0.427-0.688-0.578c-0.337-0.145-1.022-0.218-2.056-0.218h-14.96c-1.888,0-3.049,0.048-3.484,0.139
				c-0.434,0.091-0.726,0.224-0.886,0.414c-0.159,0.185-0.238,0.433-0.238,0.748c0,0.254,0.099,0.663,0.287,1.228l-0.634,0.255
				l-2.02-4.949L9.095-128.398L9.095-128.398z"/>
		</g>
	</g>
</g>
</svg>
